<svg xmlns="http://www.w3.org/2000/svg" viewBox="0 0 1920 1080" role="img" aria-label="Ocean placeholder">
  <defs>
    <linearGradient id="sky" x1="0" y1="0" x2="0" y2="1">
      <stop offset="0%" stop-color="#7eb6c9"/>
      <stop offset="55%" stop-color="#1a6b8a"/>
      <stop offset="100%" stop-color="#0b3d5c"/>
    </linearGradient>
    <linearGradient id="water" x1="0" y1="0" x2="1" y2="1">
      <stop offset="0%" stop-color="#0b3d5c"/>
      <stop offset="100%" stop-color="#145f78"/>
    </linearGradient>
  </defs>
  <rect width="1920" height="1080" fill="url(#sky)"/>
  <path d="M0 620 C 320 540, 520 700, 820 620 S 1280 540, 1600 640 S 1840 700, 1920 660 L 1920 1080 L 0 1080 Z" fill="url(#water)" opacity="0.95"/>
  <path d="M0 700 C 280 640, 560 760, 880 700 S 1360 640, 1920 720 L 1920 1080 L 0 1080 Z" fill="#0a3550" opacity="0.55"/>
  <g fill="#0a2a3d" opacity="0.85">
    <path d="M420 690 C 520 650, 700 655, 820 690 C 760 710, 620 730, 520 720 C 470 715, 440 705, 420 690 Z"/>
    <path d="M780 705 C 860 680, 980 682, 1060 708 C 1000 728, 900 740, 830 730 C 800 724, 785 715, 780 705 Z"/>
    <path d="M250 720 C 300 700, 390 702, 450 722 C 400 738, 320 742, 270 734 C 255 730, 250 725, 250 720 Z"/>
  </g>
  <circle cx="1560" cy="220" r="54" fill="#e8f4f8" opacity="0.55"/>
  <circle cx="1560" cy="220" r="42" fill="#f7fcfd" opacity="0.35"/>
</svg>
